<svg width="21" height="25" viewBox="0 0 21 25" fill="none" xmlns="http://www.w3.org/2000/svg">
<path fill-rule="evenodd" clip-rule="evenodd" d="M3.28125 1.63281C3.1072 1.63281 2.94028 1.71512 2.81721 1.86164C2.69414 2.00815 2.625 2.20686 2.625 2.41406V19.4609C2.625 19.6681 2.69414 19.8669 2.81721 20.0134C2.94028 20.1599 3.1072 20.2422 3.28125 20.2422H15.0938C15.2678 20.2422 15.4347 20.1599 15.5578 20.0134C15.6809 19.8669 15.75 19.6681 15.75 19.4609V8.38125C15.7502 8.27635 15.7326 8.17248 15.6983 8.07584C15.664 7.9792 15.6138 7.89176 15.5505 7.81875L10.3832 1.85625C10.261 1.71439 10.0971 1.6348 9.92644 1.63438L3.28125 1.63281ZM13.4741 7.6L10.5827 4.26094V7.6H13.4741ZM7.875 8.59375H5.25V7.03125H7.875V8.59375ZM13.125 12.5H5.25V10.9375H13.125V12.5ZM5.25 16.4062H13.125V14.8438H5.25V16.4062Z" fill="#E6E6E6"/>
<path d="M17.0625 11.7188V21.875H5.90625V23.4375H17.7188C17.8928 23.4375 18.0597 23.3552 18.1828 23.2087C18.3059 23.0622 18.375 22.8635 18.375 22.6562V11.7188H17.0625Z" fill="#E6E6E6"/>
</svg>
